<svg width="41" height="41" viewBox="0 0 41 41" fill="none" xmlns="http://www.w3.org/2000/svg">
<g filter="url(#filter0_i)">
<path fill-rule="evenodd" clip-rule="evenodd" d="M13.3138 6.69811C14.0647 6.39515 14.7698 6.12534 15.4595 5.82061C15.6042 5.75663 15.7694 5.57732 15.7943 5.4292C16.0294 4.02479 16.2353 2.61552 16.4528 1.20821C16.474 1.07102 16.5148 0.936817 16.5489 0.801773C16.6899 0.243482 16.9906 0.00384075 17.5832 0.00262667C19.4983 -0.00101558 21.4134 -0.000641862 23.3284 0.00234665C23.9826 0.00337395 24.3051 0.258798 24.4119 0.906185C24.6587 2.40315 24.8943 3.90217 25.1125 5.40352C25.1505 5.66539 25.2661 5.75579 25.4943 5.83947C26.089 6.05745 26.6777 6.29587 27.2537 6.55914C27.4793 6.66225 27.6273 6.66925 27.8327 6.51105C28.9745 5.63158 30.1289 4.76874 31.2801 3.9018C31.7736 3.5301 32.2375 3.4877 32.6605 3.90749C34.103 5.3388 35.5297 6.78702 36.9249 8.26427C37.4059 8.77363 37.3564 9.1782 36.914 9.75918C36.0967 10.8325 35.2792 11.9059 34.4453 12.9663C34.279 13.1779 34.2575 13.327 34.374 13.5779C34.685 14.2482 34.9274 14.9508 35.2464 15.6169C35.3243 15.7796 35.58 15.9216 35.7739 15.9542C37.1934 16.1921 38.619 16.3944 40.0408 16.6195C40.7032 16.7244 40.9887 17.0442 40.9925 17.7137C41.0028 19.5966 41.002 21.4799 40.9933 23.363C40.9901 24.051 40.7099 24.3942 40.0297 24.5032C38.6392 24.7259 37.2448 24.9244 35.8505 25.1213C35.4924 25.1718 35.2459 25.2661 35.1192 25.6755C34.9422 26.2471 34.6357 26.7774 34.4256 27.3406C34.3634 27.5074 34.3655 27.7808 34.4634 27.9118C35.2339 28.9434 36.0357 29.9514 36.8252 30.9688C36.9674 31.1521 37.1028 31.3411 37.2318 31.5339C37.4576 31.871 37.4426 32.2186 37.1962 32.5272C35.8472 34.2167 34.3804 35.7928 32.643 37.0936C32.0921 37.506 31.663 37.4635 31.126 37.0385C30.0798 36.2106 29.0272 35.3905 27.9887 34.553C27.7182 34.3348 27.4987 34.3053 27.1739 34.4698C26.6388 34.7409 26.0711 34.9519 25.5059 35.1579C25.2539 35.2497 25.1653 35.3649 25.1266 35.6465C24.9226 37.1339 24.6985 38.6193 24.4362 40.0973C24.3098 40.8091 24.0039 40.9997 23.2589 40.9998C21.4217 41 19.5845 41.0002 17.7473 40.9998C16.9283 40.9996 16.6655 40.7838 16.5399 39.9828C16.3169 38.5607 16.0956 37.1383 15.8886 35.7139C15.8457 35.4187 15.727 35.2526 15.4376 35.1478C14.872 34.9434 14.3155 34.71 13.7691 34.4584C13.5169 34.3423 13.3257 34.3444 13.1034 34.5159C12.0231 35.3494 10.927 36.1624 9.85181 37.0023C9.16408 37.5396 8.74141 37.5329 8.10862 36.9164C7.02895 35.8645 5.94275 34.8194 4.87028 33.7602C4.58401 33.4775 4.32615 33.1634 4.07604 32.8475C3.60245 32.249 3.59591 31.8168 4.05707 31.2124C4.8671 30.1508 5.68273 29.0933 6.50911 28.0443C6.68326 27.8232 6.69803 27.6671 6.56638 27.3999C6.2604 26.7783 5.99983 26.1309 5.76916 25.477C5.66657 25.1862 5.53708 25.0662 5.22783 25.0242C3.75464 24.8244 2.28491 24.5988 0.815274 24.3742C0.297584 24.2951 0.00758065 23.9749 0.00561864 23.4608C-0.0019491 21.4544 -0.00148144 19.4481 0.00468487 17.4418C0.00627316 16.9419 0.295809 16.6075 0.807612 16.5259C2.23175 16.2992 3.65738 16.0818 5.08469 15.8759C5.47429 15.8197 5.73076 15.7091 5.85763 15.2676C6.01814 14.7091 6.29497 14.1817 6.5463 13.6527C6.65589 13.4219 6.67738 13.2554 6.50229 13.0352C5.67358 11.9928 4.8756 10.926 4.04511 9.88517C3.45632 9.14729 3.4027 8.90447 3.99251 8.18629C5.25707 6.64665 6.62366 5.19965 8.21344 3.98809C8.89856 3.46603 9.18305 3.50124 9.87199 4.03039C11.0284 4.91845 12.1771 5.81622 13.3138 6.69811ZM27.2884 20.4768C27.4386 17.0516 24.4667 13.7397 20.6484 13.6652C16.5836 13.5859 13.6231 16.9279 13.6424 20.4662C13.6634 24.3109 16.6741 27.3273 20.5203 27.3434C24.2697 27.3591 27.457 24.0821 27.2884 20.4768Z" fill="white"/>
</g>
<defs>
<filter id="filter0_i" x="0" y="0" width="41" height="41" filterUnits="userSpaceOnUse" color-interpolation-filters="sRGB">
<feFlood flood-opacity="0" result="BackgroundImageFix"/>
<feBlend mode="normal" in="SourceGraphic" in2="BackgroundImageFix" result="shape"/>
<feColorMatrix in="SourceAlpha" type="matrix" values="0 0 0 0 0 0 0 0 0 0 0 0 0 0 0 0 0 0 127 0" result="hardAlpha"/>
<feOffset/>
<feGaussianBlur stdDeviation="2"/>
<feComposite in2="hardAlpha" operator="arithmetic" k2="-1" k3="1"/>
<feColorMatrix type="matrix" values="0 0 0 0 0 0 0 0 0 0 0 0 0 0 0 0 0 0 0.25 0"/>
<feBlend mode="normal" in2="shape" result="effect1_innerShadow"/>
</filter>
</defs>
</svg>
