<svg width="66" height="48" viewBox="0 0 66 48" fill="none" xmlns="http://www.w3.org/2000/svg">
<path fill-rule="evenodd" clip-rule="evenodd" d="M14.8993 4.82073C16.5611 4.82073 18.1023 4.82073 19.7392 4.82073C19.7392 3.89512 19.7304 3.01284 19.7416 2.12807C19.7591 0.852265 20.5813 0.00959016 21.8774 0.00835272C29.0745 -0.00278424 36.2729 -0.00278424 43.4712 0.00835272C44.735 0.00959016 45.541 0.818872 45.5684 2.06126C45.5883 2.94851 45.5734 3.83575 45.5734 4.81333C45.9478 4.83189 46.2625 4.86034 46.5772 4.86034C49.5053 4.86406 52.4309 4.87395 55.359 4.8591C57.4014 4.84796 59.1466 5.49142 60.5671 6.9912C61.4889 7.96382 62.4615 8.8882 63.4168 9.82989C64.6632 11.0574 65.3287 12.5362 65.3299 14.2859C65.3362 23.9429 65.3474 33.5999 65.325 43.2569C65.3175 45.8926 63.4579 47.5966 60.6989 47.5978C51.1708 47.6015 41.6414 47.599 32.1146 47.599C22.9447 47.599 13.7748 47.6015 4.60491 47.5978C2.3311 47.5966 0.666725 46.3975 0.130612 44.3706C0.0273699 43.9758 0.0149852 43.5501 0.0149852 43.1381C0.00876574 33.5999 0.0199309 24.0604 2.88105e-05 14.5223C-0.00494672 12.6302 0.634419 11.0327 2.00145 9.7507C3.51525 8.33012 5.08877 6.97266 6.61377 5.5595C6.7904 5.39616 6.89113 5.04845 6.87372 4.79849C6.71326 2.482 7.24068 1.2371 10.3554 1.44375C11.0693 1.48954 11.7871 1.44499 12.506 1.44994C14.1293 1.46356 14.898 2.23943 14.9017 3.86047C14.9005 4.15251 14.8993 4.44331 14.8993 4.82073ZM47.4119 27.1479C47.382 19.0525 40.7608 12.483 32.6482 12.4991C24.4908 12.5152 17.9132 19.1169 17.9356 27.2729C17.9567 35.3434 24.6214 41.9266 32.7303 41.8796C40.8541 41.8313 47.4442 35.2209 47.4119 27.1479ZM12.4538 10.3546C11.5905 10.3546 10.7248 10.3373 9.864 10.3595C8.97089 10.383 8.31789 10.9832 8.30793 11.7467C8.29798 12.4991 8.94848 13.1425 9.8391 13.1586C11.5345 13.1858 13.2337 13.1871 14.9303 13.1562C15.8384 13.1388 16.4467 12.5114 16.4255 11.7257C16.4031 10.9424 15.7774 10.3806 14.8631 10.3595C14.0608 10.3385 13.2549 10.3546 12.4538 10.3546Z" fill="white" fill-opacity="0.5"/>
<path fill-rule="evenodd" clip-rule="evenodd" d="M44.904 27.1478C44.9338 33.8448 39.4683 39.3416 32.7314 39.3874C26.0157 39.4319 20.4791 33.976 20.4443 27.2765C20.4082 20.5151 25.8801 15.0036 32.6481 14.9912C39.3762 14.9776 44.8717 20.4273 44.904 27.1478ZM32.6704 16.9439C26.9759 16.9439 22.3985 21.4705 22.35 27.1466C22.3039 32.7968 26.961 37.4471 32.6679 37.4508C38.3488 37.452 43.0482 32.7732 43.0171 27.1466C42.986 21.5249 38.3363 16.9439 32.6704 16.9439Z" fill="white" fill-opacity="0.5"/>
</svg>
