<svg width="19" height="18" viewBox="0 0 19 18" fill="none" xmlns="http://www.w3.org/2000/svg">
<path fill-rule="evenodd" clip-rule="evenodd" d="M9.23934 2.9503C9.52829 2.30193 9.89437 1.75459 10.3928 1.30885C11.7658 0.0808684 13.3562 -0.303592 15.1098 0.242787C16.8282 0.778151 17.9563 1.94332 18.3663 3.71899C18.629 4.85681 18.4337 5.97977 18.071 7.07102C17.6803 8.24651 17.01 9.26952 16.1946 10.1818C15.0454 11.4677 13.8548 12.7171 12.6618 13.9629C11.6414 15.0284 10.5928 16.0668 9.55654 17.117C9.33991 17.3366 9.14276 17.349 8.94161 17.1433C7.05379 15.2123 5.15865 13.2883 3.28514 11.3435C2.4614 10.4883 1.70887 9.56955 1.09209 8.54766C0.375928 7.36108 0.0046831 6.07536 2.57021e-05 4.69C-0.00724907 2.52629 1.5305 0.639572 3.69399 0.14076C5.92081 -0.372689 8.15409 0.700542 9.14396 2.75965C9.16836 2.81038 9.19426 2.86033 9.23934 2.9503Z" fill="#A0FF94"/>
</svg>
