<svg width="19" height="18" viewBox="0 0 19 18" fill="none" xmlns="http://www.w3.org/2000/svg">
<path d="M8.8446 16.4148C8.84465 16.4147 8.84469 16.4147 8.84474 16.4146C8.84469 16.4147 8.84464 16.4147 8.8446 16.4148ZM8.8446 16.4148C8.84215 16.417 8.84092 16.4182 8.84092 16.4183C8.84091 16.4184 8.84213 16.4173 8.8446 16.4148ZM8.34525 3.3982L9.29216 5.28838L10.1527 3.35737C10.3979 2.80729 10.6886 2.38583 11.0594 2.05424C12.1844 1.04812 13.4122 0.761279 14.8124 1.19752L14.8124 1.19752C16.205 1.63138 17.065 2.52805 17.3919 3.94397C17.596 4.82816 17.4569 5.748 17.122 6.75559L17.122 6.75563C16.7853 7.76882 16.1994 8.67579 15.449 9.51544L16.1159 10.1115L15.449 9.51544C14.3126 10.787 13.1328 12.0252 11.9395 13.2712L11.9395 13.2712C11.235 14.0069 10.5208 14.7257 9.79903 15.452C9.61265 15.6396 9.42577 15.8277 9.23842 16.0167C8.90062 15.6715 8.56291 15.3267 8.2254 14.9821C6.81276 13.5399 5.40351 12.1011 4.00534 10.6497C3.21788 9.83223 2.5164 8.97228 1.94824 8.03093C1.32273 6.99455 1.00405 5.88554 1.00002 4.68664C0.994384 3.01045 2.18989 1.51378 3.91866 1.1152L3.91868 1.11519C5.68993 0.706785 7.45549 1.55539 8.24269 3.19291L8.24282 3.19319C8.26268 3.23447 8.28623 3.28111 8.31109 3.33035C8.32228 3.35252 8.33374 3.37522 8.34525 3.3982Z" stroke="#A0FF94" stroke-width="2"/>
</svg>
