<svg width="21" height="20" viewBox="0 0 21 20" fill="none" xmlns="http://www.w3.org/2000/svg">
<path fill-rule="evenodd" clip-rule="evenodd" d="M10.4999 0C12.2139 0 14.3851 5.62511 14.3851 5.62511C14.3851 5.62511 20.4287 5.9431 20.9584 7.5664C21.4881 9.18956 16.7865 12.9842 16.7865 12.9842C16.7865 12.9842 18.3503 18.8059 16.9637 19.8092C15.577 20.8123 10.5 17.5324 10.5 17.5324C10.5 17.5324 5.42299 20.8125 4.03633 19.8092C2.64968 18.8059 4.21348 12.9842 4.21348 12.9842C4.21348 12.9842 -0.488073 9.18971 0.0416174 7.5664C0.571161 5.9431 6.61487 5.62511 6.61487 5.62511C6.61487 5.62511 8.78578 0 10.4999 0Z" fill="#A0FF94"/>
</svg>
