<svg width="23" height="22" viewBox="0 0 23 22" fill="none" xmlns="http://www.w3.org/2000/svg">
<path fill-rule="evenodd" clip-rule="evenodd" d="M11.4999 1C13.2139 1 15.3851 6.62511 15.3851 6.62511C15.3851 6.62511 21.4287 6.9431 21.9584 8.5664C22.4881 10.1896 17.7865 13.9842 17.7865 13.9842C17.7865 13.9842 19.3503 19.8059 17.9637 20.8092C16.577 21.8123 11.5 18.5324 11.5 18.5324C11.5 18.5324 6.42299 21.8125 5.03633 20.8092C3.64968 19.8059 5.21348 13.9842 5.21348 13.9842C5.21348 13.9842 0.511927 10.1897 1.04162 8.5664C1.57116 6.9431 7.61487 6.62511 7.61487 6.62511C7.61487 6.62511 9.78578 1 11.4999 1Z" stroke="#A0FF94" stroke-width="2" stroke-miterlimit="10"/>
</svg>
